# xmcd
#
# Track frame offsets:
#	150
#	27969
#	44898
#	64067
#	92801
#	111574
#	129659
#	154674
#	176974
#	197603
#
# Disc length: 2952 seconds
#
# Revision: 0
# Processed by: cddbd v1.5.1PL2 Copyright (c) Steve Scherf et al.
# Submitted via: dBpowerAMP V4.0
#
DISCID=940b860a
DTITLE=Various Artist - Ru Lai Cau Ho
DYEAR=1900
DGENRE=
TTITLE0=Ru Lai Cau Ho - Cam Ly
TTITLE1=Tinh Ta Ly Qua Cau - Cam Ly
TTITLE2=Loi Ru Ngay Xua - Quang Linh
TTITLE3=May Chieu - Cam Ly
TTITLE4=Qua Ben Ninh Kieu - Cam Ly
TTITLE5=Thuong Nhau Ly To Hong - Quang Linh Cam Ly
TTITLE6=Noi Buon Cua Me - Cam Ly
TTITLE7=Chuyen Lam Dau - Quang Linh
TTITLE8=Duyen Tinh Ly Ngua O - Cam Ly
TTITLE9=Do Xua - Cam Ly
EXTD=
EXTT0=
EXTT1=
EXTT2=
EXTT3=
EXTT4=
EXTT5=
EXTT6=
EXTT7=
EXTT8=
EXTT9=
PLAYORDER=
